<svg width="23" height="28" viewBox="0 0 23 28" fill="none" xmlns="http://www.w3.org/2000/svg">
<path fill-rule="evenodd" clip-rule="evenodd" d="M18.1988 28H0V0H11.7174C15.3537 0 23 8.42683 23 11.2163V22.9658L20.7 20.6325V12.1998C20.7 7.40833 13.8 9.33333 13.8 9.33333C13.8 9.33333 15.5446 2.33333 10.7663 2.33333H2.3V25.6667H15.8987L18.1988 28ZM15.8688 22.3323C14.95 22.9647 13.8425 23.3333 12.65 23.3333C9.476 23.3333 6.9 20.72 6.9 17.5C6.9 14.28 9.476 11.6667 12.65 11.6667C15.824 11.6667 18.4 14.28 18.4 17.5C18.4 18.6667 18.0619 19.754 17.4788 20.6663L23 26.3503L21.3739 28L15.8688 22.3323ZM12.65 14C14.5544 14 16.1 15.568 16.1 17.5C16.1 19.432 14.5544 21 12.65 21C10.7456 21 9.2 19.432 9.2 17.5C9.2 15.568 10.7456 14 12.65 14Z" fill="white"/>
</svg>
