<svg width="40" height="27" viewBox="0 0 40 27" fill="none" xmlns="http://www.w3.org/2000/svg">
<path d="M36.6667 0H3.33333C1.49333 0 0 1.512 0 3.375V23.625C0 25.488 1.49333 27 3.33333 27H36.6667C38.5067 27 40 25.488 40 23.625V3.375C40 1.512 38.5067 0 36.6667 0ZM36.6667 22.7812C36.6667 23.247 36.2933 23.625 35.8333 23.625H4.16667C3.70667 23.625 3.33333 23.247 3.33333 22.7812V11.8125H36.6667V22.7812ZM36.6667 6.75H3.33333V4.21875C3.33333 3.753 3.70667 3.375 4.16667 3.375H35.8333C36.2933 3.375 36.6667 3.753 36.6667 4.21875V6.75ZM21.6667 16.875H6.66667V15.1875H21.6667V16.875ZM16.6667 20.25H6.66667V18.5625H16.6667V20.25ZM33.3333 16.875H28.3333V15.1875H33.3333V16.875Z" fill="white"/>
</svg>
