<svg width="231" height="231" viewBox="0 0 231 231" fill="none" xmlns="http://www.w3.org/2000/svg">
<path d="M21.6562 118.59L91.63 181.065C93.0064 182.288 94.7196 182.894 96.4329 182.894C98.4156 182.894 100.379 182.086 101.813 180.498L209.902 60.1755C211.144 58.7991 211.75 57.0859 211.75 55.363C211.75 51.3301 208.497 48.1442 204.541 48.1442C202.558 48.1442 200.585 48.9527 199.16 50.5409L95.8746 165.511L31.2812 107.819C29.8953 106.597 28.182 105.991 26.4688 105.991C22.4551 105.991 19.25 109.224 19.25 113.2C19.25 115.182 20.0585 117.165 21.6562 118.59Z" fill="white"/>
</svg>
