<svg width="23" height="23" viewBox="0 0 23 23" fill="none" xmlns="http://www.w3.org/2000/svg">
<path fill-rule="evenodd" clip-rule="evenodd" d="M11.5 9.76126L20.7934 0.466257C21.0306 0.229007 21.3442 0.110382 21.6562 0.110382C22.3127 0.110382 22.875 0.636881 22.875 1.32751C22.875 1.64113 22.7564 1.95313 22.5191 2.19201L13.2241 11.4854L22.5175 20.7788C22.7564 21.0176 22.875 21.3296 22.875 21.6416C22.875 22.3355 22.3079 22.8604 21.6562 22.8604C21.3442 22.8604 21.0306 22.7418 20.7934 22.5045L11.5 13.2111L2.20663 22.5045C1.96938 22.7418 1.65575 22.8604 1.34375 22.8604C0.692125 22.8604 0.125 22.3355 0.125 21.6416C0.125 21.3296 0.243625 21.0176 0.4825 20.7788L9.77588 11.4854L0.480875 2.19201C0.243625 1.95313 0.125 1.64113 0.125 1.32751C0.125 0.636881 0.68725 0.110382 1.34375 0.110382C1.65575 0.110382 1.96938 0.229007 2.20663 0.466257L11.5 9.76126Z" fill="white"/>
</svg>
