<svg width="21" height="20" viewBox="0 0 21 20" fill="none" xmlns="http://www.w3.org/2000/svg">
<path d="M18.5905 5.41666H13.5905" stroke="white" stroke-width="1.5" stroke-miterlimit="10" stroke-linecap="round" stroke-linejoin="round"/>
<path d="M5.25714 5.41666H1.92381" stroke="white" stroke-width="1.5" stroke-miterlimit="10" stroke-linecap="round" stroke-linejoin="round"/>
<path d="M8.59047 8.33333C10.2013 8.33333 11.5071 7.0275 11.5071 5.41667C11.5071 3.80584 10.2013 2.5 8.59047 2.5C6.97964 2.5 5.67381 3.80584 5.67381 5.41667C5.67381 7.0275 6.97964 8.33333 8.59047 8.33333Z" stroke="white" stroke-width="1.5" stroke-miterlimit="10" stroke-linecap="round" stroke-linejoin="round"/>
<path d="M18.5905 14.5833H15.2571" stroke="white" stroke-width="1.5" stroke-miterlimit="10" stroke-linecap="round" stroke-linejoin="round"/>
<path d="M6.92381 14.5833H1.92381" stroke="white" stroke-width="1.5" stroke-miterlimit="10" stroke-linecap="round" stroke-linejoin="round"/>
<path d="M11.9238 17.5C13.5346 17.5 14.8405 16.1942 14.8405 14.5833C14.8405 12.9725 13.5346 11.6667 11.9238 11.6667C10.313 11.6667 9.00714 12.9725 9.00714 14.5833C9.00714 16.1942 10.313 17.5 11.9238 17.5Z" stroke="white" stroke-width="1.5" stroke-miterlimit="10" stroke-linecap="round" stroke-linejoin="round"/>
</svg>
