<svg width="27" height="27" viewBox="0 0 27 27" fill="none" xmlns="http://www.w3.org/2000/svg">
<path d="M13.5 0C6.04463 0 0 6.04463 0 13.5C0 20.9554 6.04463 27 13.5 27C20.9554 27 27 20.9554 27 13.5C27 6.04463 20.9554 0 13.5 0ZM23.5969 18.4309L20.6629 16.7603C21.1163 15.7657 21.375 14.6644 21.375 13.5C21.375 12.3356 21.1163 11.2343 20.6629 10.2409L23.5969 8.57025C24.3281 10.0609 24.75 11.7304 24.75 13.5C24.75 15.2696 24.3281 16.9391 23.5969 18.4309ZM2.25 13.5C2.25 11.7304 2.67188 10.0609 3.40313 8.56913L6.33712 10.2397C5.88375 11.2343 5.625 12.3356 5.625 13.5C5.625 14.6644 5.88375 15.7657 6.33712 16.7591L3.40313 18.4298C2.67188 16.9391 2.25 15.2696 2.25 13.5ZM7.875 13.5C7.875 10.3984 10.3984 7.875 13.5 7.875C16.6016 7.875 19.125 10.3984 19.125 13.5C19.125 16.6016 16.6016 19.125 13.5 19.125C10.3984 19.125 7.875 16.6016 7.875 13.5ZM18.4466 3.411L16.776 6.345C15.777 5.88713 14.67 5.625 13.5 5.625C12.33 5.625 11.223 5.88713 10.224 6.345L8.55338 3.411C10.0485 2.67525 11.7236 2.25 13.5 2.25C15.2764 2.25 16.9515 2.67525 18.4466 3.411ZM8.55338 23.589L10.224 20.655C11.223 21.1129 12.33 21.375 13.5 21.375C14.67 21.375 15.777 21.1129 16.776 20.655L18.4466 23.589C16.9515 24.3248 15.2764 24.75 13.5 24.75C11.7236 24.75 10.0485 24.3248 8.55338 23.589Z" fill="white"/>
</svg>
