<svg width="24" height="24" viewBox="0 0 24 24" fill="none" xmlns="http://www.w3.org/2000/svg">
<path d="M12 0C5.373 0 0 5.373 0 12C0 18.627 5.373 24 12 24C18.627 24 24 18.627 24 12C24 5.373 18.627 0 12 0ZM12 22C6.486 22 2 17.514 2 12C2 6.486 6.486 2 12 2C17.514 2 22 6.486 22 12C22 17.514 17.514 22 12 22ZM12 3.2C7.147 3.2 3.2 7.147 3.2 12C3.2 16.853 7.147 20.8 12 20.8C16.853 20.8 20.8 16.853 20.8 12C20.8 7.147 16.853 3.2 12 3.2ZM12 18.25C11.311 18.25 10.75 17.69 10.75 17C10.75 16.31 11.311 15.75 12 15.75C12.691 15.75 13.25 16.31 13.25 17C13.25 17.69 12.691 18.25 12 18.25ZM13.961 12.322C13.057 13.297 13.014 13.836 13.026 14.5H11.021C11.014 13.025 11.041 12.375 12.453 11.032C13.025 10.488 13.477 10.057 13.415 9.211C13.357 8.406 12.685 7.985 12.051 7.985C11.342 7.985 10.513 8.512 10.513 9.998H8.502C8.502 7.598 9.912 6.048 12.092 6.048C13.128 6.048 14.034 6.387 14.643 7.003C15.213 7.581 15.508 8.375 15.497 9.301C15.479 10.684 14.638 11.592 13.961 12.322Z" fill="white"/>
</svg>
