<svg width="20" height="27" viewBox="0 0 20 27" fill="none" xmlns="http://www.w3.org/2000/svg">
<path d="M17.8957 10.9916V7.49687C17.8354 3.32568 14.2804 0 9.88179 0C5.48319 0 1.92815 3.32568 1.92815 7.4405V10.9353C0.843568 10.9353 0 11.7244 0 12.739V25.1962C0 26.2109 0.843568 27 1.92815 27H17.8957C18.9803 27 19.8238 26.2109 19.8238 25.1962V12.7954C19.7636 11.7808 18.92 10.9916 17.8957 10.9916ZM11.6894 22.3215H8.07415L8.61644 19.2213C8.1344 18.8831 7.83313 18.3194 7.83313 17.6994C7.83313 16.6284 8.79721 15.7265 9.94205 15.7265C11.0869 15.7265 12.051 16.6284 12.051 17.6994C12.051 18.3194 11.7497 18.8831 11.2677 19.2213L11.6894 22.3215ZM15.3047 10.9916H4.45886V7.49687C4.45886 4.73486 6.86905 2.4238 9.88179 2.4238C12.8343 2.4238 15.3047 4.6785 15.3047 7.49687V10.9916Z" fill="white"/>
</svg>
