<svg width="150" height="34" viewBox="0 0 150 34" fill="none" xmlns="http://www.w3.org/2000/svg">
<path d="M32.0914 29.6807L4.98618 3.23658" stroke="white" stroke-width="6" stroke-linecap="round"/>
<path d="M18.2108 30.3444L3.66657 16.4612" stroke="white" stroke-width="6" stroke-linecap="round"/>
<path d="M4.98328 31L2.99997 29.0167" stroke="white" stroke-width="6" stroke-linecap="round"/>
<path d="M31.9687 3L25.9687 10.3333L31.9687 17" stroke="white" stroke-width="6" stroke-linecap="round" stroke-linejoin="round"/>
<path d="M62.7499 31H59.6562L56.457 22.8262H46.1562L42.9921 31H39.9687L50.1288 5.19531H52.6425L62.7499 31ZM55.5253 20.1367L52.537 12.1738C52.1386 11.1426 51.7402 9.90625 51.3417 8.46484C51.0839 9.56641 50.7148 10.8027 50.2343 12.1738L47.2109 20.1367H55.5253ZM65.8751 5.30078H72.5373C78.9591 5.30078 82.1701 7.79688 82.1701 12.7891C82.1701 15.3906 81.2794 17.3945 79.4982 18.8008C77.7287 20.1953 75.1915 20.8926 71.8869 20.8926H68.8634V31H65.8751V5.30078ZM68.8634 7.88477V18.3262H71.5529C74.213 18.3262 76.129 17.8984 77.3009 17.043C78.4845 16.1758 79.0763 14.8516 79.0763 13.0703C79.0763 11.2773 78.5138 9.96484 77.3888 9.13281C76.2755 8.30078 74.547 7.88477 72.2033 7.88477H68.8634ZM106.407 31H103.313L100.114 22.8262H89.8128L86.6488 31H83.6253L93.7855 5.19531H96.2992L106.407 31ZM99.182 20.1367L96.1937 12.1738C95.7953 11.1426 95.3968 9.90625 94.9984 8.46484C94.7406 9.56641 94.3714 10.8027 93.891 12.1738L90.8675 20.1367H99.182ZM109.532 5.30078H116.581C119.721 5.30078 122.047 5.9043 123.559 7.11133C125.071 8.30664 125.827 10.123 125.827 12.5605C125.827 15.959 124.104 18.2559 120.659 19.4512L127.637 31H124.104L117.881 20.3125H112.52V31H109.532V5.30078ZM112.52 7.91992V17.7461H116.616C118.713 17.7461 120.254 17.3301 121.239 16.498C122.235 15.666 122.733 14.4062 122.733 12.7188C122.733 11.0312 122.229 9.8125 121.221 9.0625C120.225 8.30078 118.62 7.91992 116.405 7.91992H112.52ZM134.366 31H131.378V5.30078H134.366V18.0449L146.02 5.30078H149.553L139.218 16.4629L149.94 31H146.425L137.055 18.5371L134.366 20.9277V31Z" fill="white"/>
</svg>
