<svg width="221" height="283" viewBox="0 0 221 283" fill="none" xmlns="http://www.w3.org/2000/svg">
<path d="M44.2847 278H39.7192V252.702C39.7192 249.945 39.8446 246.794 40.0952 243.249H39.8804L26.4258 278H22.7734L9.45312 243.195H9.23828C9.48893 246.06 9.61426 249.336 9.61426 253.024V278H5.39795V238.737H12.2729L24.707 271.125H24.9219L37.4634 238.737H44.2847V278ZM84.0793 278H79.3527L74.465 265.512H58.7277L53.8938 278H49.2746L64.7971 238.576H68.6374L84.0793 278ZM73.0417 261.403L68.4763 249.238C67.8676 247.662 67.2588 245.773 66.6501 243.571C66.2562 245.254 65.6923 247.143 64.9582 249.238L60.3391 261.403H73.0417ZM89.0693 238.737H99.2475C109.059 238.737 113.964 242.551 113.964 250.178C113.964 254.152 112.604 257.214 109.882 259.362C107.179 261.493 103.303 262.558 98.2538 262.558H93.6347V278H89.0693V238.737ZM93.6347 242.685V258.637H97.7436C101.808 258.637 104.735 257.984 106.525 256.677C108.334 255.352 109.238 253.329 109.238 250.607C109.238 247.868 108.378 245.863 106.66 244.592C104.959 243.321 102.318 242.685 98.7372 242.685H93.6347ZM149.408 278H146.32L140.868 264.143H124.916L119.438 278H116.403L132.194 238.576H133.94L149.408 278ZM139.955 261.672L134.611 247.519C134.181 246.481 133.644 244.941 133 242.9C132.534 244.547 132.006 246.105 131.415 247.573L125.91 261.672H139.955ZM154.586 238.737H163.932C168.784 238.737 172.374 239.632 174.701 241.423C177.046 243.213 178.219 245.926 178.219 249.56C178.219 252.228 177.512 254.457 176.097 256.247C174.701 258.037 172.606 259.326 169.813 260.114L180.475 278H177.199L167.074 260.893H157.326V278H154.586V238.737ZM157.326 241.208V258.53H164.818C168.166 258.53 170.735 257.787 172.526 256.301C174.334 254.815 175.238 252.604 175.238 249.667C175.238 246.731 174.343 244.592 172.553 243.249C170.78 241.888 167.871 241.208 163.825 241.208H157.326ZM189.627 278H186.888V238.737H189.627V259.147L193.978 254.797L209.366 238.737H212.857L196.771 255.334L213.287 278H209.93L194.864 257.268L189.627 261.887V278Z" fill="white"/>
<path d="M189.064 171.234L33.3917 19.359" stroke="white" stroke-width="35" stroke-linecap="round"/>
<path d="M109.344 175.045L25.8127 95.3108" stroke="white" stroke-width="35" stroke-linecap="round"/>
<path d="M33.375 178.811L21.9844 167.42" stroke="white" stroke-width="35" stroke-linecap="round"/>
<path d="M190.389 18L152.421 59.7656L190.389 97.7344" stroke="white" stroke-width="35" stroke-linecap="round" stroke-linejoin="round"/>
</svg>
