<svg width="27" height="27" viewBox="0 0 27 27" fill="none" xmlns="http://www.w3.org/2000/svg">
<path d="M26.3497 3.61481C26.2109 3.49647 26.0558 3.3986 25.8893 3.32418L18.5001 0.151241C18.2723 0.0514951 18.0264 0 17.7778 0C17.5292 0 17.2832 0.0514951 17.0555 0.151241L9.4048 3.4442C9.35916 3.46423 9.31046 3.47641 9.26077 3.48021C9.18596 3.47535 9.11152 3.4659 9.03786 3.45192L6.20271 2.01162L2.54368 0.152955C2.38597 0.0871552 2.21969 0.0441435 2.04986 0.0252148C1.7932 -0.00800749 1.5324 0.0139934 1.28493 0.089744C1.03746 0.165495 0.809033 0.293246 0.614944 0.464444C0.420855 0.635642 0.265585 0.846334 0.159532 1.08241C0.0534792 1.31849 -0.000908385 1.5745 1.14763e-05 1.8333V21.6442C0.000211977 21.9868 0.0967924 22.3225 0.278716 22.6128C0.460639 22.9031 0.720566 23.1364 1.02879 23.286L8.42488 26.8233C8.79215 27.0037 9.21084 27.0504 9.60884 26.9553C9.74392 26.9251 9.87489 26.8787 9.99892 26.8173L14.5221 24.6174C14.6756 24.5428 14.7932 24.4103 14.849 24.2491C14.9048 24.0878 14.8942 23.911 14.8196 23.7575C14.745 23.604 14.6125 23.4865 14.4513 23.4307C14.29 23.3749 14.1132 23.3854 13.9597 23.46L9.81888 25.4747V4.66931C9.85832 4.65388 9.89947 4.6393 9.93548 4.62301L17.1369 1.52209V14.2181C17.1369 14.3887 17.2047 14.5522 17.3253 14.6728C17.4459 14.7934 17.6094 14.8611 17.7799 14.8611C17.9505 14.8611 18.114 14.7934 18.2346 14.6728C18.3552 14.5522 18.4229 14.3887 18.4229 14.2181V1.52209L25.3724 4.50556C25.422 4.52788 25.4684 4.55671 25.5104 4.59129C25.5712 4.64183 25.6202 4.70494 25.6543 4.77628C25.6883 4.84762 25.7065 4.92549 25.7076 5.00452C25.7076 5.01052 25.7076 5.01481 25.7076 5.02081V14.2181C25.7076 14.3887 25.7753 14.5522 25.8959 14.6728C26.0165 14.7934 26.18 14.8611 26.3506 14.8611C26.5211 14.8611 26.6846 14.7934 26.8052 14.6728C26.9258 14.5522 26.9935 14.3887 26.9935 14.2181V5.01224C26.9941 4.74653 26.9368 4.48388 26.8257 4.24255C26.7145 4.00122 26.5521 3.78701 26.3497 3.61481ZM1.99413 1.31719L5.66431 3.18015L8.51147 4.62559L8.53462 4.63416V25.4413L1.58434 22.12C1.49454 22.0756 1.41899 22.007 1.36625 21.9218C1.31352 21.8366 1.28571 21.7384 1.28599 21.6382V1.83244C1.28551 1.74287 1.30746 1.6546 1.34984 1.57568C1.39222 1.49677 1.45368 1.42971 1.52861 1.38064C1.62301 1.31832 1.73356 1.28494 1.84668 1.28462C1.89737 1.28666 1.9473 1.29769 1.99413 1.31719Z" fill="white"/>
<path d="M21.0223 16.586C19.8368 16.586 18.6998 17.057 17.8615 17.8953C17.0232 18.7336 16.5522 19.8705 16.5522 21.0561C16.5522 22.2416 17.0232 23.3786 17.8615 24.2169C18.6998 25.0552 19.8368 25.5261 21.0223 25.5261C22.015 25.5221 22.9776 25.1845 23.7554 24.5676L25.8927 26.8052C26.0106 26.9285 26.1726 26.9998 26.3432 27.0036C26.5137 27.0074 26.6787 26.9433 26.8019 26.8254C26.9252 26.7075 26.9965 26.5455 27.0003 26.375C27.0041 26.2045 26.94 26.0394 26.8221 25.9162L24.653 23.6452C25.1321 22.9784 25.4177 22.1923 25.4784 21.3735C25.539 20.5548 25.3724 19.7351 24.9969 19.005C24.6214 18.2749 24.0516 17.6627 23.3502 17.2359C22.6489 16.809 21.8433 16.5841 21.0223 16.586ZM17.8391 21.0518C17.8391 20.422 18.0258 19.8063 18.3758 19.2827C18.7257 18.7591 19.223 18.351 19.8049 18.11C20.3867 17.869 21.027 17.806 21.6447 17.9289C22.2623 18.0519 22.8297 18.3552 23.275 18.8006C23.7202 19.246 24.0234 19.8134 24.1462 20.4311C24.2689 21.0488 24.2057 21.6891 23.9646 22.2709C23.7235 22.8527 23.3153 23.3499 22.7915 23.6997C22.2678 24.0494 21.6521 24.236 21.0223 24.2359C20.1783 24.2347 19.3691 23.8989 18.7724 23.302C18.1756 22.7051 17.84 21.8958 17.8391 21.0518Z" fill="white"/>
</svg>
