<svg width="26" height="26" viewBox="0 0 26 26" fill="none" xmlns="http://www.w3.org/2000/svg">
<path d="M19.0878 10.4634C19.0878 11.2878 18.961 11.9854 18.7073 12.6195C18.4536 13.2537 18.0731 13.761 17.5975 14.2049C17.1219 14.6488 16.5195 14.9659 15.8219 15.1878C15.1244 15.4098 14.3 15.5366 13.3488 15.5366H12.1439V20.1025C12.1439 20.1659 12.1122 20.2293 12.0805 20.2927C12.0171 20.3561 11.9536 20.3878 11.8268 20.4512C11.7 20.483 11.5731 20.5147 11.3829 20.5464C11.1927 20.5781 10.9707 20.5781 10.6536 20.5781C10.3683 20.5781 10.1463 20.5781 9.95607 20.5464C9.76583 20.5147 9.60729 20.483 9.51217 20.4512C9.38534 20.4195 9.32193 20.3561 9.29022 20.2927C9.25851 20.2293 9.22681 20.1659 9.22681 20.1025V7.10246C9.22681 6.75368 9.32193 6.50002 9.51217 6.30978C9.70242 6.11954 9.92437 6.05612 10.2414 6.05612H13.6341C13.9829 6.05612 14.3 6.05612 14.6171 6.08783C14.9341 6.11954 15.2829 6.18295 15.7268 6.24637C16.1707 6.34149 16.5829 6.50002 17.0268 6.72198C17.4707 6.94393 17.8512 7.22929 18.1683 7.60978C18.4853 7.95856 18.7073 8.37076 18.8975 8.84637C18.9927 9.32198 19.0878 9.861 19.0878 10.4634ZM16.0122 10.6537C16.0122 10.1464 15.9171 9.73417 15.7585 9.4171C15.5683 9.10002 15.3463 8.84637 15.0927 8.68783C14.839 8.52929 14.5536 8.43417 14.2683 8.40246C13.9829 8.37076 13.6975 8.33905 13.3805 8.33905H12.1439V13.2537H13.4756C13.9512 13.2537 14.3317 13.1903 14.6488 13.0634C14.9658 12.9366 15.2195 12.7464 15.4097 12.5244C15.6 12.3025 15.7585 12.0171 15.8536 11.7C15.9488 11.383 16.0122 11.0342 16.0122 10.6537Z" fill="white"/>
<path d="M13 0C5.83415 0 0 5.83415 0 13C0 20.1659 5.83415 26 13 26C20.1659 26 26 20.1659 26 13C26 5.83415 20.1976 0 13 0ZM13.0634 23.9707C7.00732 23.9707 2.09268 19.0561 2.09268 13C2.09268 6.9439 6.97561 2.02927 13.0634 2.02927C19.1195 2.02927 24.0341 6.9439 24.0341 13C24.0341 19.0878 19.1195 23.9707 13.0634 23.9707Z" fill="white"/>
</svg>
