<svg width="28" height="28" viewBox="0 0 24 24" fill="none" xmlns="http://www.w3.org/2000/svg">
<path d="M10.9714 10.9714H1.02857C0.4608 10.9714 0 11.4322 0 12C0 12.5678 0.4608 13.0286 1.02857 13.0286H10.9714V22.9714C10.9714 23.5392 11.4322 24 12 24C12.5678 24 13.0286 23.5392 13.0286 22.9714V13.0286H22.9714C23.5392 13.0286 24 12.5678 24 12C24 11.4322 23.5392 10.9714 22.9714 10.9714H13.0286V1.02857C13.0286 0.4608 12.5678 0 12 0C11.4322 0 10.9714 0.4608 10.9714 1.02857V10.9714Z" fill="#313131"/>
</svg>
