<svg width="38" height="38" viewBox="0 0 38 38" fill="none" xmlns="http://www.w3.org/2000/svg">
<path d="M17.4167 12.6667H15.8333V9.5H17.4167V11.0833H20.5833V12.6667H19V14.25H17.4167V12.6667ZM20.5833 31.6667V30.0833H19V31.6667H20.5833ZM19 7.91667V6.33333H15.8333V7.91667H17.4167V9.5H19V7.91667ZM31.6667 6.33333V15.8333H30.0833V14.25H23.75V6.33333H31.6667ZM30.0833 12.6667V7.91667H25.3333V12.6667H30.0833ZM7.91667 15.8333H6.33333V17.4167H9.5V15.8333H7.91667ZM7.91667 20.5833H9.5V22.1667H11.0833V17.4167H9.5V19H6.33333V22.1667H7.91667V20.5833ZM15.8333 22.1667V25.3333H17.4167V22.1667H15.8333ZM22.1667 6.33333H20.5833V11.0833H22.1667V6.33333ZM22.1667 14.25V12.6667H20.5833V14.25H22.1667ZM26.9167 11.0833H28.5V9.5H26.9167V11.0833ZM11.0833 9.5H9.5V11.0833H11.0833V9.5ZM14.25 6.33333V14.25H6.33333V6.33333H14.25ZM12.6667 7.91667H7.91667V12.6667H12.6667V7.91667ZM26.9167 15.8333V17.4167H25.3333V15.8333H22.1667V17.4167H20.5833V15.8333H15.8333V14.25H14.25V15.8333H12.6667V17.4167H14.25V20.5833H15.8333V19H17.4167V22.1667H19V19H23.75V20.5833H20.5833V22.1667H23.75V23.75H25.3333V19H26.9167V20.5833H28.5V23.75H30.0833V22.1667H31.6667V20.5833H30.0833V19H28.5V17.4167H30.0833V15.8333H26.9167ZM9.5 28.5H11.0833V26.9167H9.5V28.5ZM6.33333 23.75H14.25V31.6667H6.33333V23.75ZM7.91667 30.0833H12.6667V25.3333H7.91667V30.0833ZM26.9167 25.3333V23.75H25.3333V25.3333H26.9167ZM26.9167 26.9167H25.3333V28.5H23.75V26.9167H22.1667V25.3333H23.75V23.75H20.5833V22.1667H19V25.3333H17.4167V26.9167H15.8333V31.6667H17.4167V30.0833H19V28.5H22.1667V31.6667H23.75V30.0833H25.3333V31.6667H28.5V30.0833H30.0833V28.5H26.9167V26.9167ZM12.6667 22.1667H14.25V20.5833H12.6667V22.1667ZM28.5 25.3333V26.9167H30.0833V28.5H31.6667V23.75H30.0833V25.3333H28.5ZM31.6667 31.6667V30.0833H30.0833V31.6667H31.6667ZM31.6667 19V17.4167H30.0833V19H31.6667ZM28.5 3.16667H34.8333V9.5H38V0H28.5V3.16667ZM3.16667 9.5V3.16667H9.5V0H0V9.5H3.16667ZM9.5 34.8333H3.16667V28.5H0V38H9.5V34.8333ZM34.8333 28.5V34.8333H28.5V38H38V28.5H34.8333Z" fill="white"/>
</svg>
