<svg width="30" height="26" viewBox="0 0 30 26" fill="none" xmlns="http://www.w3.org/2000/svg">
<path d="M14.7602 16.7716L19.6184 11.5421C20.1754 10.9541 20.1135 10.0568 19.5565 9.49978C18.9686 8.94279 18.0712 9.00468 17.5142 9.56167L13.7081 13.6772L11.9753 11.8206C11.4183 11.2326 10.5209 11.2017 9.93298 11.7587C9.34505 12.3157 9.3141 13.213 9.87109 13.801L12.656 16.8025C13.213 17.3905 14.2032 17.3905 14.7602 16.7716Z" fill="white"/>
<path d="M27.0449 9.5926H26.0857C25.1574 4.14648 20.392 0 14.6983 0C9.00467 0 4.27026 4.14648 3.311 9.5926H2.38268C1.08304 9.5926 0 10.6756 0 11.9753V15.967C0 16.6169 0.247551 17.2048 0.711709 17.669C1.17587 18.1022 1.7638 18.3497 2.38268 18.3497H4.51781C5.13668 18.3497 5.63179 17.8546 5.63179 17.2357V11.5421C5.63179 6.5601 9.68543 2.50645 14.6674 2.50645C19.6494 2.50645 23.703 6.5601 23.703 11.5421V19.309C23.703 21.3513 22.032 23.0222 19.9897 23.0222H17.9474C17.7927 22.3724 17.2357 21.9083 16.524 21.9083H12.8417C12.0062 21.9083 11.3564 22.589 11.3564 23.3936V24.4147C11.3564 25.2502 12.0372 25.9 12.8417 25.9H16.5859C17.2667 25.9 17.8237 25.4049 18.0093 24.786H20.0516C23.0532 24.786 25.5287 22.3415 25.5287 19.309V18.3188H27.0449C27.6638 18.3188 28.2827 18.0712 28.7159 17.638C29.1801 17.1738 29.4276 16.5859 29.4276 15.9361V11.9753C29.4276 10.6756 28.3755 9.62354 27.0449 9.5926Z" fill="white"/>
</svg>
