<svg width="28" height="28" viewBox="0 0 36 36" fill="none" xmlns="http://www.w3.org/2000/svg">
<path d="M18.6183 15.8806C18.5978 17.5 20.0616 18.4037 21.1642 18.941C22.2971 19.4922 22.6776 19.8458 22.6731 20.3388C22.6647 21.0932 21.7695 21.4262 20.9318 21.4392C19.4702 21.4618 18.6204 21.0446 17.9449 20.729L17.4184 23.1926C18.0962 23.505 19.3513 23.7774 20.6528 23.7893C23.7078 23.7893 25.7065 22.2812 25.7174 19.9431C25.7293 16.9756 21.6128 16.8114 21.6409 15.485C21.6506 15.0828 22.0344 14.6536 22.8753 14.5445C23.2916 14.4894 24.4406 14.4472 25.7434 15.0471L26.2547 12.6635C25.5541 12.4084 24.6537 12.1641 23.5326 12.1641C20.6571 12.1641 18.6346 13.6927 18.6183 15.8806ZM31.1678 12.3694C30.61 12.3694 30.1399 12.6948 29.9301 13.1942L25.566 23.6142H28.6189L29.2264 21.9353L32.9569 21.9353L33.3093 23.6142H36L33.652 12.3694H31.1678ZM31.5949 15.4071L32.4759 19.6296L30.0631 19.6296L31.5949 15.4071ZM14.9169 12.3696L12.5106 23.6141H15.4197L17.8249 12.3693L14.9169 12.3693V12.3696ZM10.6134 12.3693L7.58545 20.0231L6.36061 13.5154C6.21689 12.7889 5.64933 12.3694 5.01905 12.3694H0.0693281L0 12.696C1.01616 12.9165 2.17069 13.2721 2.87016 13.6526C3.29822 13.8851 3.42028 14.0883 3.56091 14.6407L5.8808 23.6142H8.955L13.6682 12.3694H10.6134" fill="url(#paint0_linear_88_2386)"/>
<defs>
<linearGradient id="paint0_linear_88_2386" x1="16.5506" y1="24.0225" x2="16.8871" y2="12.0833" gradientUnits="userSpaceOnUse">
<stop stop-color="#222357"/>
<stop offset="1" stop-color="#254AA5"/>
</linearGradient>
</defs>
</svg>
